<svg width="84" height="84" viewBox="0 0 84 84" fill="none" xmlns="http://www.w3.org/2000/svg">
<path d="M41.6667 0C18.6667 0 0 18.6667 0 41.6667C0 64.6667 18.6667 83.3333 41.6667 83.3333C64.6667 83.3333 83.3333 64.6667 83.3333 41.6667C83.3333 18.6667 64.6667 0 41.6667 0ZM61 28.3333C60.375 34.9167 57.6667 50.9167 56.2917 58.2917C55.7083 61.4167 54.5417 62.4583 53.4583 62.5833C51.0417 62.7917 49.2083 61 46.875 59.4583C43.2083 57.0417 41.125 55.5417 37.5833 53.2083C33.4583 50.5 36.125 49 38.5 46.5833C39.125 45.9583 49.7917 36.25 50 35.375C50.0289 35.2425 50.0251 35.1049 49.9888 34.9742C49.9525 34.8435 49.8848 34.7236 49.7917 34.625C49.5417 34.4167 49.2083 34.5 48.9167 34.5417C48.5417 34.625 42.7083 38.5 31.3333 46.1667C29.6667 47.2917 28.1667 47.875 26.8333 47.8333C25.3333 47.7917 22.5 47 20.375 46.2917C17.75 45.4583 15.7083 45 15.875 43.5417C15.9583 42.7917 17 42.0417 18.9583 41.25C31.125 35.9583 39.2083 32.4583 43.25 30.7917C54.8333 25.9583 57.2083 25.125 58.7917 25.125C59.125 25.125 59.9167 25.2083 60.4167 25.625C60.8333 25.9583 60.9583 26.4167 61 26.75C60.9583 27 61.0417 27.75 61 28.3333Z" fill="#21243D"/>
</svg>
